<svg xmlns="http://www.w3.org/2000/svg" xmlns:xlink="http://www.w3.org/1999/xlink" width="991.249" height="242.32" viewBox="0 0 991.249 242.32">
  <defs>
    <clipPath id="clip-path">
      <rect id="Rectangle_333" data-name="Rectangle 333" width="686.249" height="160.023" fill="none"/>
    </clipPath>
    <filter id="Ellipse_90" x="0" y="0" width="243.307" height="242.32" filterUnits="userSpaceOnUse">
      <feOffset dy="3" input="SourceAlpha"/>
      <feGaussianBlur stdDeviation="3" result="blur"/>
      <feFlood flood-opacity="0.161"/>
      <feComposite operator="in" in2="blur"/>
    </filter>
    <filter id="Ellipse_90-2" x="0" y="0" width="243.307" height="242.32" filterUnits="userSpaceOnUse">
      <feOffset dy="3" input="SourceAlpha"/>
      <feGaussianBlur stdDeviation="3" result="blur-2"/>
      <feFlood flood-opacity="0.161" result="color"/>
      <feComposite operator="out" in="SourceGraphic" in2="blur-2"/>
      <feComposite operator="in" in="color"/>
      <feComposite operator="in" in2="SourceGraphic"/>
    </filter>
  </defs>
  <g id="Group_62" data-name="Group 62" transform="translate(305 38.148)">
    <g id="Group_61" data-name="Group 61" clip-path="url(#clip-path)">
      <path id="Path_57" data-name="Path 57" d="M5.072,5.827Q9.2,2.394,15.939,2.393A17.734,17.734,0,0,1,23.814,4,11.569,11.569,0,0,1,28.76,8.347a11.7,11.7,0,0,1,1.669,6.206,10.9,10.9,0,0,1-2.047,6.709A10.039,10.039,0,0,1,23.5,24.947V25.2a10.6,10.6,0,0,1,5.7,4.032,12.6,12.6,0,0,1,2.047,7.435,13.1,13.1,0,0,1-1.732,6.74,11.791,11.791,0,0,1-5.1,4.631,18.08,18.08,0,0,1-8.1,1.67q-7.119,0-11.592-3.592T0,35.531H8.568a6.862,6.862,0,0,0,2.111,4.946,7.651,7.651,0,0,0,5.449,1.859,6.557,6.557,0,0,0,4.946-1.8,6.4,6.4,0,0,0,1.732-4.631q0-3.78-2.394-5.418t-7.434-1.638H11.151V21.608h1.827q8.946,0,8.946-5.984A5.517,5.517,0,0,0,20.318,11.4,6.508,6.508,0,0,0,15.687,9.89,6.177,6.177,0,0,0,11.12,11.5,6.488,6.488,0,0,0,9.261,15.56H.63q.315-6.3,4.442-9.733" fill="#fff"/>
      <path id="Path_58" data-name="Path 58" d="M66.812,8.127a19.362,19.362,0,0,1,8.127,7.716,23,23,0,0,1,2.866,11.625,22.65,22.65,0,0,1-2.866,11.56,19.466,19.466,0,0,1-8.127,7.654,26.255,26.255,0,0,1-12.191,2.709H39.249V5.418H54.621A26.268,26.268,0,0,1,66.812,8.127m-1.8,29.987q3.78-3.78,3.78-10.646t-3.78-10.742q-3.78-3.875-10.71-3.875H48.069V41.894h6.237q6.93,0,10.71-3.78" fill="#fff"/>
      <path id="Path_59" data-name="Path 59" d="M153.121,17.923q3.936,3.939,3.938,10.994V49.392h-8.821V30.113a8.72,8.72,0,0,0-2.079-6.268,7.479,7.479,0,0,0-5.67-2.173,7.581,7.581,0,0,0-5.7,2.173,8.635,8.635,0,0,0-2.111,6.268V49.392h-8.82V30.113a8.72,8.72,0,0,0-2.079-6.268,7.479,7.479,0,0,0-5.67-2.173,7.663,7.663,0,0,0-5.764,2.173,8.635,8.635,0,0,0-2.111,6.268V49.392h-8.82v-34.9h8.82v4.222a11.744,11.744,0,0,1,4.379-3.466,13.669,13.669,0,0,1,5.89-1.26,15.163,15.163,0,0,1,7.308,1.733,12.151,12.151,0,0,1,4.978,4.946,12.621,12.621,0,0,1,4.945-4.851,15.121,15.121,0,0,1,17.388,2.11" fill="#fff"/>
      <path id="Path_60" data-name="Path 60" d="M171.862,47.721a16.089,16.089,0,0,1-6.331-6.331,18.958,18.958,0,0,1-2.3-9.449,18.578,18.578,0,0,1,2.363-9.451,16.406,16.406,0,0,1,6.457-6.33,19.77,19.77,0,0,1,18.27,0,16.408,16.408,0,0,1,6.458,6.33,18.578,18.578,0,0,1,2.362,9.451,18.2,18.2,0,0,1-2.425,9.449,16.788,16.788,0,0,1-6.552,6.331,19.032,19.032,0,0,1-9.229,2.238,18.364,18.364,0,0,1-9.073-2.238m13.577-6.614a8.473,8.473,0,0,0,3.371-3.5,11.788,11.788,0,0,0,1.259-5.669q0-4.975-2.614-7.655a8.594,8.594,0,0,0-6.394-2.677,8.393,8.393,0,0,0-6.332,2.677q-2.552,2.679-2.552,7.655t2.489,7.653a8.188,8.188,0,0,0,6.269,2.678,9.178,9.178,0,0,0,4.5-1.165" fill="#fff"/>
      <path id="Path_61" data-name="Path 61" d="M205.472,22.428a15.217,15.217,0,0,1,13.892-8.5,14.817,14.817,0,0,1,6.488,1.481,12.964,12.964,0,0,1,4.914,3.937V2.772h8.947v46.62h-8.947V44.226a11.949,11.949,0,0,1-4.6,4.158,14.425,14.425,0,0,1-6.868,1.575,15,15,0,0,1-8.063-2.268,15.783,15.783,0,0,1-5.765-6.4,20.531,20.531,0,0,1-2.11-9.481,20.2,20.2,0,0,1,2.11-9.387m24.1,4a8.894,8.894,0,0,0-3.4-3.527,9.086,9.086,0,0,0-4.6-1.229,8.853,8.853,0,0,0-7.907,4.694,10.951,10.951,0,0,0-1.291,5.449,11.312,11.312,0,0,0,1.291,5.512,9.272,9.272,0,0,0,3.4,3.622,8.624,8.624,0,0,0,4.5,1.261,9.1,9.1,0,0,0,4.6-1.228,8.9,8.9,0,0,0,3.4-3.529,11.32,11.32,0,0,0,1.26-5.512,11.329,11.329,0,0,0-1.26-5.513" fill="#fff"/>
      <path id="Path_62" data-name="Path 62" d="M280.536,34.587H255.021a8.679,8.679,0,0,0,2.646,5.922A8.161,8.161,0,0,0,263.4,42.65a7.2,7.2,0,0,0,6.993-4.22h9.513a15.9,15.9,0,0,1-5.8,8.284,16.915,16.915,0,0,1-10.521,3.245,18.189,18.189,0,0,1-9.04-2.237,15.73,15.73,0,0,1-6.238-6.331,19.4,19.4,0,0,1-2.236-9.451,19.749,19.749,0,0,1,2.205-9.512,15.391,15.391,0,0,1,6.174-6.3,19.829,19.829,0,0,1,18.05-.064,15.089,15.089,0,0,1,6.111,6.08,18.407,18.407,0,0,1,2.173,9.041,20.833,20.833,0,0,1-.252,3.4m-8.883-5.922a6.994,6.994,0,0,0-2.457-5.45,8.713,8.713,0,0,0-5.859-2.047,8,8,0,0,0-5.512,1.984,8.727,8.727,0,0,0-2.741,5.513Z" fill="#fff"/>
      <rect id="Rectangle_331" data-name="Rectangle 331" width="8.819" height="46.62" transform="translate(287.214 2.772)" fill="#fff"/>
      <path id="Path_63" data-name="Path 63" d="M305.326,8.852a4.895,4.895,0,0,1-1.544-3.686,4.894,4.894,0,0,1,1.544-3.685,5.809,5.809,0,0,1,7.749,0,4.9,4.9,0,0,1,1.543,3.685,4.9,4.9,0,0,1-1.543,3.686,5.812,5.812,0,0,1-7.749,0m8.221,40.54h-8.82V14.49h8.82Z" fill="#fff"/>
      <path id="Path_64" data-name="Path 64" d="M351.663,17.923q3.842,3.939,3.843,10.994V49.392h-8.821V30.113a9.046,9.046,0,0,0-2.079-6.394,7.363,7.363,0,0,0-5.67-2.236,7.547,7.547,0,0,0-5.764,2.236,8.965,8.965,0,0,0-2.111,6.394V49.392h-8.819v-34.9h8.819v4.348a12.188,12.188,0,0,1,4.505-3.56,13.948,13.948,0,0,1,6.017-1.292,13.458,13.458,0,0,1,10.08,3.938" fill="#fff"/>
      <path id="Path_65" data-name="Path 65" d="M384.422,15.466a12.645,12.645,0,0,1,4.662,4V14.49h8.884V49.644a18.738,18.738,0,0,1-1.954,8.662,14.507,14.507,0,0,1-5.859,6.049,18.742,18.742,0,0,1-9.45,2.236q-7.434,0-12.191-3.465a12.846,12.846,0,0,1-5.386-9.45h8.758a6.512,6.512,0,0,0,2.992,3.812,10.428,10.428,0,0,0,5.575,1.417,8.634,8.634,0,0,0,6.237-2.3q2.394-2.3,2.394-6.962V44.226a13.4,13.4,0,0,1-4.694,4.095,14.015,14.015,0,0,1-6.835,1.638,15,15,0,0,1-8.064-2.268,15.789,15.789,0,0,1-5.765-6.4,20.53,20.53,0,0,1-2.11-9.481,20.2,20.2,0,0,1,2.11-9.387,15.484,15.484,0,0,1,5.734-6.3,15.259,15.259,0,0,1,8.1-2.2,14.663,14.663,0,0,1,6.867,1.543m3.4,10.962a8.894,8.894,0,0,0-3.4-3.527,9.083,9.083,0,0,0-4.6-1.229,8.85,8.85,0,0,0-7.906,4.694,10.94,10.94,0,0,0-1.292,5.449,11.3,11.3,0,0,0,1.292,5.512,9.263,9.263,0,0,0,3.4,3.622,8.627,8.627,0,0,0,4.5,1.261,9.1,9.1,0,0,0,4.6-1.228,8.9,8.9,0,0,0,3.4-3.529,11.308,11.308,0,0,0,1.26-5.512,11.318,11.318,0,0,0-1.26-5.513" fill="#fff"/>
      <path id="Path_66" data-name="Path 66" d="M428.017,47.721a16.085,16.085,0,0,1-6.332-6.331,18.968,18.968,0,0,1-2.3-9.449,18.578,18.578,0,0,1,2.362-9.451,16.406,16.406,0,0,1,6.457-6.33,19.772,19.772,0,0,1,18.271,0,16.412,16.412,0,0,1,6.457,6.33,18.578,18.578,0,0,1,2.362,9.451,18.186,18.186,0,0,1-2.425,9.449,16.785,16.785,0,0,1-6.551,6.331,19.038,19.038,0,0,1-9.23,2.238,18.358,18.358,0,0,1-9.072-2.238m13.576-6.614a8.473,8.473,0,0,0,3.371-3.5,11.787,11.787,0,0,0,1.26-5.669q0-4.975-2.614-7.655a8.6,8.6,0,0,0-6.395-2.677,8.393,8.393,0,0,0-6.332,2.677q-2.551,2.679-2.552,7.655t2.49,7.653a8.185,8.185,0,0,0,6.268,2.678,9.175,9.175,0,0,0,4.5-1.165" fill="#fff"/>
      <path id="Path_67" data-name="Path 67" d="M477.787,21.734h-6.111V49.391h-8.947V21.734h-3.968V14.489h3.968V12.725q0-6.426,3.655-9.45T477.409.44V7.875q-3.215-.063-4.474,1.07t-1.259,4.1v1.448h6.111Z" fill="#fff"/>
      <path id="Path_68" data-name="Path 68" d="M28.224,109.717a11.951,11.951,0,0,1,4.819,5.1,17.517,17.517,0,0,1,1.733,8.1v20.475h-8.82V124.113a9.051,9.051,0,0,0-2.079-6.395,7.366,7.366,0,0,0-5.67-2.236,7.548,7.548,0,0,0-5.765,2.236,8.965,8.965,0,0,0-2.11,6.395v19.278H1.512V96.771h8.82v16.065a11.488,11.488,0,0,1,4.536-3.559,15.022,15.022,0,0,1,6.3-1.292,14.181,14.181,0,0,1,7.056,1.732" fill="#fff"/>
      <path id="Path_69" data-name="Path 69" d="M43.753,102.851a5.171,5.171,0,0,1,0-7.371,5.812,5.812,0,0,1,7.749,0,5.173,5.173,0,0,1,0,7.371,5.809,5.809,0,0,1-7.749,0m8.222,40.54h-8.82v-34.9h8.82Z" fill="#fff"/>
      <path id="Path_70" data-name="Path 70" d="M66.339,142.415a13.589,13.589,0,0,1-5.387-4.189,10.625,10.625,0,0,1-2.173-5.86h8.883a4.834,4.834,0,0,0,1.985,3.34,6.9,6.9,0,0,0,4.315,1.322A6.7,6.7,0,0,0,77.9,136.02a3.049,3.049,0,0,0,1.417-2.583,2.725,2.725,0,0,0-1.732-2.551,32.725,32.725,0,0,0-5.513-1.859,46.539,46.539,0,0,1-6.395-1.953,11.081,11.081,0,0,1-4.284-3.087,8.281,8.281,0,0,1-1.8-5.606,9.049,9.049,0,0,1,1.669-5.292,11.209,11.209,0,0,1,4.788-3.78,17.968,17.968,0,0,1,7.34-1.386q6.237,0,9.954,3.118a11.555,11.555,0,0,1,4.1,8.41H79a4.569,4.569,0,0,0-1.733-3.307,7.81,7.81,0,0,0-7.811-.346,2.811,2.811,0,0,0-1.292,2.457,2.886,2.886,0,0,0,1.764,2.677,27.406,27.406,0,0,0,5.481,1.859,46.685,46.685,0,0,1,6.237,1.952,11.04,11.04,0,0,1,4.253,3.119,8.575,8.575,0,0,1,1.858,5.575,9.244,9.244,0,0,1-1.67,5.418A10.985,10.985,0,0,1,81.3,142.6a18.138,18.138,0,0,1-7.276,1.355,18.416,18.416,0,0,1-7.686-1.544" fill="#fff"/>
      <path id="Path_71" data-name="Path 71" d="M105.273,115.734v16.884a3.337,3.337,0,0,0,.85,2.552,4.178,4.178,0,0,0,2.867.788h4.1v7.433h-5.544q-11.151,0-11.151-10.836V115.734H92.232v-7.245H96.39V99.858h8.883v8.631h7.812v7.245Z" fill="#fff"/>
      <path id="Path_72" data-name="Path 72" d="M125.872,141.721a16.089,16.089,0,0,1-6.331-6.331,18.959,18.959,0,0,1-2.3-9.45,18.575,18.575,0,0,1,2.363-9.45,16.415,16.415,0,0,1,6.457-6.331,19.77,19.77,0,0,1,18.27,0,16.417,16.417,0,0,1,6.458,6.331,18.574,18.574,0,0,1,2.362,9.45,18.2,18.2,0,0,1-2.425,9.45,16.788,16.788,0,0,1-6.552,6.331,19.043,19.043,0,0,1-9.229,2.238,18.375,18.375,0,0,1-9.073-2.238m13.577-6.614a8.473,8.473,0,0,0,3.371-3.5,11.789,11.789,0,0,0,1.259-5.67q0-4.976-2.614-7.654a8.6,8.6,0,0,0-6.394-2.678,8.394,8.394,0,0,0-6.332,2.678q-2.551,2.677-2.552,7.654t2.489,7.654a8.192,8.192,0,0,0,6.269,2.678,9.178,9.178,0,0,0,4.5-1.165" fill="#fff"/>
      <path id="Path_73" data-name="Path 73" d="M172.9,109.56a12.362,12.362,0,0,1,6.269-1.575v9.262h-2.331q-4.158,0-6.269,1.952t-2.11,6.8v17.388h-8.82v-34.9h8.82v5.418a12.4,12.4,0,0,1,4.441-4.347" fill="#fff"/>
      <path id="Path_74" data-name="Path 74" d="M185.689,102.851a5.173,5.173,0,0,1,0-7.371,5.812,5.812,0,0,1,7.749,0,5.171,5.171,0,0,1,0,7.371,5.809,5.809,0,0,1-7.749,0m8.222,40.54h-8.82v-34.9h8.82Z" fill="#fff"/>
      <path id="Path_75" data-name="Path 75" d="M202.542,116.458a15.75,15.75,0,0,1,6.112-6.3,17.683,17.683,0,0,1,8.946-2.236,17.2,17.2,0,0,1,10.74,3.244,15.784,15.784,0,0,1,5.7,9.1h-9.513a6.973,6.973,0,0,0-2.55-3.56,7.421,7.421,0,0,0-4.443-1.291,7.274,7.274,0,0,0-5.985,2.74q-2.206,2.741-2.205,7.78,0,4.978,2.205,7.718a7.274,7.274,0,0,0,5.985,2.74q5.352,0,6.993-4.788h9.513a16.1,16.1,0,0,1-5.733,9.009,16.884,16.884,0,0,1-10.709,3.34,17.663,17.663,0,0,1-8.946-2.237,15.75,15.75,0,0,1-6.112-6.3,21.488,21.488,0,0,1,0-18.963" fill="#fff"/>
      <path id="Path_76" data-name="Path 76" d="M240.372,116.427a15.484,15.484,0,0,1,5.734-6.3,15.259,15.259,0,0,1,8.1-2.205,14.23,14.23,0,0,1,6.835,1.575,13.863,13.863,0,0,1,4.694,3.969v-4.977h8.884v34.9H265.73v-5.1a13.122,13.122,0,0,1-4.694,4.064,14.373,14.373,0,0,1-6.9,1.606,14.839,14.839,0,0,1-8.032-2.268,15.87,15.87,0,0,1-5.734-6.4,20.531,20.531,0,0,1-2.11-9.481,20.2,20.2,0,0,1,2.11-9.387m24.1,4a8.894,8.894,0,0,0-3.4-3.527,9.083,9.083,0,0,0-4.6-1.229,8.85,8.85,0,0,0-7.906,4.694,10.94,10.94,0,0,0-1.292,5.449,11.3,11.3,0,0,0,1.292,5.512,9.262,9.262,0,0,0,3.4,3.622,8.627,8.627,0,0,0,4.5,1.261,9.1,9.1,0,0,0,4.6-1.228,8.9,8.9,0,0,0,3.4-3.529,12.688,12.688,0,0,0,0-11.025" fill="#fff"/>
      <rect id="Rectangle_332" data-name="Rectangle 332" width="8.819" height="46.62" transform="translate(283.245 96.771)" fill="#fff"/>
      <path id="Path_77" data-name="Path 77" d="M326.021,115.734v16.884a3.336,3.336,0,0,0,.85,2.552,4.178,4.178,0,0,0,2.867.788h4.1v7.433h-5.544q-11.151,0-11.152-10.836V115.734H312.98v-7.245h4.157V99.858h8.884v8.631h7.812v7.245Z" fill="#fff"/>
      <path id="Path_78" data-name="Path 78" d="M340.792,102.851a5.175,5.175,0,0,1,0-7.371,5.813,5.813,0,0,1,7.75,0,5.173,5.173,0,0,1,0,7.371,5.81,5.81,0,0,1-7.75,0m8.222,40.54H340.2v-34.9h8.819Z" fill="#fff"/>
      <path id="Path_79" data-name="Path 79" d="M411.417,111.922q3.935,3.939,3.937,10.994v20.475h-8.82V124.112a8.716,8.716,0,0,0-2.08-6.268,7.476,7.476,0,0,0-5.669-2.173,7.584,7.584,0,0,0-5.7,2.173,8.639,8.639,0,0,0-2.11,6.268v19.279h-8.821V124.112a8.72,8.72,0,0,0-2.078-6.268,7.479,7.479,0,0,0-5.67-2.173,7.665,7.665,0,0,0-5.765,2.173,8.63,8.63,0,0,0-2.11,6.268v19.279h-8.821v-34.9h8.821v4.222a11.754,11.754,0,0,1,4.377-3.466,13.681,13.681,0,0,1,5.892-1.26,15.162,15.162,0,0,1,7.307,1.733,12.157,12.157,0,0,1,4.978,4.946,12.632,12.632,0,0,1,4.944-4.851,15.124,15.124,0,0,1,17.39,2.11" fill="#fff"/>
      <path id="Path_80" data-name="Path 80" d="M455.924,128.587H430.41a8.675,8.675,0,0,0,2.646,5.922,8.159,8.159,0,0,0,5.733,2.141,7.2,7.2,0,0,0,6.992-4.22h9.513a15.9,15.9,0,0,1-5.8,8.284,16.917,16.917,0,0,1-10.521,3.245,18.189,18.189,0,0,1-9.04-2.237,15.739,15.739,0,0,1-6.239-6.331,19.4,19.4,0,0,1-2.235-9.451,19.749,19.749,0,0,1,2.205-9.512,15.389,15.389,0,0,1,6.173-6.3,19.831,19.831,0,0,1,18.051-.064,15.089,15.089,0,0,1,6.111,6.08,18.407,18.407,0,0,1,2.173,9.041,20.826,20.826,0,0,1-.253,3.4m-8.882-5.922a6.994,6.994,0,0,0-2.457-5.45,8.714,8.714,0,0,0-5.86-2.047,8,8,0,0,0-5.511,1.984,8.727,8.727,0,0,0-2.741,5.513Z" fill="#fff"/>
      <path id="Path_81" data-name="Path 81" d="M468.272,142.415a13.589,13.589,0,0,1-5.387-4.189,10.624,10.624,0,0,1-2.173-5.86H469.6a4.834,4.834,0,0,0,1.985,3.34,6.9,6.9,0,0,0,4.315,1.322,6.7,6.7,0,0,0,3.938-1.008,3.048,3.048,0,0,0,1.418-2.583,2.726,2.726,0,0,0-1.733-2.551,32.725,32.725,0,0,0-5.513-1.859,46.521,46.521,0,0,1-6.394-1.953,11.073,11.073,0,0,1-4.284-3.087,8.276,8.276,0,0,1-1.8-5.606,9.043,9.043,0,0,1,1.67-5.292,11.2,11.2,0,0,1,4.788-3.78,17.965,17.965,0,0,1,7.34-1.386q6.235,0,9.953,3.118a11.551,11.551,0,0,1,4.1,8.41h-8.442a4.572,4.572,0,0,0-1.732-3.307,7.812,7.812,0,0,0-7.812-.346,2.813,2.813,0,0,0-1.292,2.457,2.886,2.886,0,0,0,1.764,2.677,27.452,27.452,0,0,0,5.481,1.859,46.751,46.751,0,0,1,6.238,1.952,11.044,11.044,0,0,1,4.252,3.119,8.564,8.564,0,0,1,1.858,5.575,9.25,9.25,0,0,1-1.669,5.418,10.991,10.991,0,0,1-4.788,3.749,18.141,18.141,0,0,1-7.276,1.355,18.421,18.421,0,0,1-7.687-1.544" fill="#fff"/>
      <path id="Path_82" data-name="Path 82" d="M510.45,109.529a14.225,14.225,0,0,1,6.835-1.606,15.262,15.262,0,0,1,8.1,2.205,15.519,15.519,0,0,1,5.733,6.268,20.152,20.152,0,0,1,2.111,9.418,20.532,20.532,0,0,1-2.111,9.482,15.872,15.872,0,0,1-5.733,6.394,14.943,14.943,0,0,1-8.1,2.269,14.107,14.107,0,0,1-6.772-1.575,14.537,14.537,0,0,1-4.756-3.969v21.608h-8.82V108.489h8.82v5.04a13.39,13.39,0,0,1,4.693-4m12.474,10.836a8.955,8.955,0,0,0-3.4-3.5,9.121,9.121,0,0,0-4.568-1.2,8.81,8.81,0,0,0-4.505,1.228,9.105,9.105,0,0,0-3.4,3.56,12.28,12.28,0,0,0,0,10.962,9.109,9.109,0,0,0,3.4,3.559,8.888,8.888,0,0,0,9.073-.032,9.344,9.344,0,0,0,3.4-3.591,11.274,11.274,0,0,0,1.292-5.544,10.964,10.964,0,0,0-1.292-5.449" fill="#fff"/>
      <path id="Path_83" data-name="Path 83" d="M539.492,116.427a15.484,15.484,0,0,1,5.734-6.3,15.259,15.259,0,0,1,8.095-2.205,14.23,14.23,0,0,1,6.835,1.575,13.862,13.862,0,0,1,4.694,3.969v-4.977h8.884v34.9H564.85v-5.1a13.122,13.122,0,0,1-4.694,4.064,14.372,14.372,0,0,1-6.9,1.606,14.839,14.839,0,0,1-8.032-2.268,15.87,15.87,0,0,1-5.734-6.4,20.531,20.531,0,0,1-2.11-9.481,20.2,20.2,0,0,1,2.11-9.387m24.1,4a8.894,8.894,0,0,0-3.4-3.527,9.083,9.083,0,0,0-4.6-1.229,8.85,8.85,0,0,0-7.906,4.694,10.94,10.94,0,0,0-1.292,5.449,11.3,11.3,0,0,0,1.292,5.512,9.263,9.263,0,0,0,3.4,3.622,8.627,8.627,0,0,0,4.5,1.261,9.1,9.1,0,0,0,4.6-1.228,8.9,8.9,0,0,0,3.4-3.529,12.689,12.689,0,0,0,0-11.025" fill="#fff"/>
      <path id="Path_84" data-name="Path 84" d="M582.3,116.458a15.761,15.761,0,0,1,6.111-6.3,17.688,17.688,0,0,1,8.946-2.236,17.207,17.207,0,0,1,10.742,3.244,15.788,15.788,0,0,1,5.7,9.1h-9.513a6.958,6.958,0,0,0-2.551-3.56,7.418,7.418,0,0,0-4.442-1.291,7.274,7.274,0,0,0-5.985,2.74q-2.207,2.741-2.205,7.78,0,4.978,2.205,7.718a7.274,7.274,0,0,0,5.985,2.74q5.354,0,6.993-4.788H613.8a16.1,16.1,0,0,1-5.733,9.009,16.885,16.885,0,0,1-10.71,3.34,17.669,17.669,0,0,1-8.946-2.237,15.76,15.76,0,0,1-6.111-6.3,21.488,21.488,0,0,1,0-18.963" fill="#fff"/>
      <path id="Path_85" data-name="Path 85" d="M652.483,128.587H626.967a8.676,8.676,0,0,0,2.647,5.922,8.158,8.158,0,0,0,5.732,2.141,7.2,7.2,0,0,0,6.993-4.22h9.514a15.9,15.9,0,0,1-5.8,8.284,16.912,16.912,0,0,1-10.52,3.245,18.189,18.189,0,0,1-9.04-2.237,15.73,15.73,0,0,1-6.238-6.331,19.4,19.4,0,0,1-2.236-9.451,19.749,19.749,0,0,1,2.205-9.512,15.386,15.386,0,0,1,6.174-6.3,19.827,19.827,0,0,1,18.049-.064,15.082,15.082,0,0,1,6.111,6.08,18.4,18.4,0,0,1,2.174,9.041,20.938,20.938,0,0,1-.252,3.4m-8.883-5.922a7,7,0,0,0-2.457-5.45,8.713,8.713,0,0,0-5.859-2.047,8,8,0,0,0-5.513,1.984,8.726,8.726,0,0,0-2.74,5.513Z" fill="#fff"/>
      <path id="Path_86" data-name="Path 86" d="M664.83,142.415a13.589,13.589,0,0,1-5.387-4.189,10.624,10.624,0,0,1-2.173-5.86h8.883a4.834,4.834,0,0,0,1.985,3.34,6.9,6.9,0,0,0,4.315,1.322,6.7,6.7,0,0,0,3.938-1.008,3.048,3.048,0,0,0,1.418-2.583,2.726,2.726,0,0,0-1.733-2.551,32.724,32.724,0,0,0-5.513-1.859,46.52,46.52,0,0,1-6.394-1.953,11.073,11.073,0,0,1-4.284-3.087,8.276,8.276,0,0,1-1.8-5.606,9.043,9.043,0,0,1,1.67-5.292,11.2,11.2,0,0,1,4.788-3.78,17.965,17.965,0,0,1,7.34-1.386q6.235,0,9.954,3.118a11.556,11.556,0,0,1,4.093,8.41h-8.441a4.572,4.572,0,0,0-1.732-3.307,7.812,7.812,0,0,0-7.812-.346,2.813,2.813,0,0,0-1.292,2.457,2.886,2.886,0,0,0,1.764,2.677,27.451,27.451,0,0,0,5.481,1.859,46.753,46.753,0,0,1,6.238,1.952,11.052,11.052,0,0,1,4.252,3.119,8.558,8.558,0,0,1,1.857,5.575,9.256,9.256,0,0,1-1.668,5.418,10.991,10.991,0,0,1-4.788,3.749,18.141,18.141,0,0,1-7.276,1.355,18.421,18.421,0,0,1-7.687-1.544" fill="#fff"/>
    </g>
  </g>
  <g id="Component_2_7" data-name="Component 2 – 7" transform="translate(9 6)">
    <g data-type="innerShadowGroup">
      <g transform="matrix(1, 0, 0, 1, -9, -6)" filter="url(#Ellipse_90)">
        <g id="Ellipse_90-3" data-name="Ellipse 90" transform="translate(9 6)" fill="#678098" stroke="#607b94" stroke-width="3">
          <ellipse cx="112.654" cy="112.16" rx="112.654" ry="112.16" stroke="none"/>
          <ellipse cx="112.654" cy="112.16" rx="111.154" ry="110.66" fill="none"/>
        </g>
      </g>
      <ellipse id="Ellipse_90-4" data-name="Ellipse 90" cx="112.654" cy="112.16" rx="112.654" ry="112.16" fill="#678098"/>
      <g transform="matrix(1, 0, 0, 1, -9, -6)" filter="url(#Ellipse_90-2)">
        <ellipse id="Ellipse_90-5" data-name="Ellipse 90" cx="112.654" cy="112.16" rx="112.654" ry="112.16" transform="translate(9 6)" fill="#fff"/>
      </g>
      <g id="Ellipse_90-6" data-name="Ellipse 90" fill="none" stroke="#607b94" stroke-width="3">
        <ellipse cx="112.654" cy="112.16" rx="112.654" ry="112.16" stroke="none"/>
        <ellipse cx="112.654" cy="112.16" rx="111.154" ry="110.66" fill="none"/>
      </g>
    </g>
    <path id="Polygon_25" data-name="Polygon 25" d="M129.017,0l43.006,78.775-43.006,78.775H43.006L0,78.775,43.006,0Z" transform="translate(25.326 35.104)" fill="#c7b99c"/>
    <rect id="Rectangle_317" data-name="Rectangle 317" width="92" height="92" transform="translate(66.262 67.82)" fill="#efefef"/>
    <path id="Path_39" data-name="Path 39" d="M865.152,397.5c-.251-.082-46.487,24.2-46.487,24.2l46.487,24.958S896.9,420.519,865.152,397.5Z" transform="translate(-737.751 -305.057)" fill="#274b6d"/>
    <circle id="Ellipse_91" data-name="Ellipse 91" cx="6.743" cy="6.743" r="6.743" transform="translate(76.966 109.2)" fill="#f08e5f"/>
  </g>
</svg>
