<svg xmlns="http://www.w3.org/2000/svg" xmlns:xlink="http://www.w3.org/1999/xlink" width="507.484" height="505.339" viewBox="0 0 507.484 505.339">
  <defs>
    <filter id="Path_42" x="0" y="0" width="507.484" height="505.339" filterUnits="userSpaceOnUse">
      <feOffset dy="3" input="SourceAlpha"/>
      <feGaussianBlur stdDeviation="3" result="blur"/>
      <feFlood flood-opacity="0.161"/>
      <feComposite operator="in" in2="blur"/>
    </filter>
    <filter id="Path_42-2" x="0" y="0" width="507.484" height="505.339" filterUnits="userSpaceOnUse">
      <feOffset dy="3" input="SourceAlpha"/>
      <feGaussianBlur stdDeviation="3" result="blur-2"/>
      <feFlood flood-opacity="0.161" result="color"/>
      <feComposite operator="out" in="SourceGraphic" in2="blur-2"/>
      <feComposite operator="in" in="color"/>
      <feComposite operator="in" in2="SourceGraphic"/>
    </filter>
  </defs>
  <g data-type="innerShadowGroup">
    <g transform="matrix(1, 0, 0, 1, 0, 0)" filter="url(#Path_42)">
      <g id="Path_42-3" data-name="Path 42" transform="translate(9 6)" fill="#678098">
        <path d="M 244.7417602539062 485.8387451171875 C 228.2366943359375 485.8387451171875 211.7424468994141 484.1833190917969 195.7171936035156 480.9184265136719 C 180.1000671386719 477.7366943359375 164.7385711669922 472.9891357421875 150.0593872070312 466.8075561523438 C 135.6465148925781 460.7381286621094 121.7451324462891 453.2257995605469 108.7415084838867 444.4791870117188 C 95.86113739013672 435.8155517578125 83.74900817871094 425.8658752441406 72.74156951904297 414.9066162109375 C 61.73419952392578 403.947509765625 51.74088668823242 391.8886108398438 43.03926086425781 379.0650024414062 C 34.25457382202148 366.1188659667969 26.70944786071777 352.279052734375 20.6136360168457 337.9299926757812 C 14.40526008605957 323.3160705566406 9.637072563171387 308.0228576660156 6.441572666168213 292.4752502441406 C 3.162572860717773 276.521484375 1.500010251998901 260.1007995605469 1.500010251998901 243.6693725585938 C 1.500010251998901 227.2379302978516 3.162572860717773 210.8172454833984 6.441572666168213 194.8634948730469 C 9.637072563171387 179.3158721923828 14.40526008605957 164.0226898193359 20.6136360168457 149.4087524414062 C 26.70944786071777 135.0596923828125 34.25457382202148 121.2198715209961 43.03926086425781 108.2737503051758 C 51.74088668823242 95.45011901855469 61.73419952392578 83.39125061035156 72.74156951904297 72.43212127685547 C 83.74900817871094 61.47287368774414 95.86113739013672 51.52318572998047 108.7415084838867 42.85956192016602 C 121.7451324462891 34.11293411254883 135.6465148925781 26.60062217712402 150.0593872070312 20.53118515014648 C 164.7385711669922 14.34962272644043 180.1000671386719 9.602060317993164 195.7171936035156 6.420310020446777 C 211.7424468994141 3.155435085296631 228.2366943359375 1.499997615814209 244.7417602539062 1.499997615814209 C 261.246826171875 1.499997615814209 277.7410583496094 3.155435085296631 293.7663269042969 6.420310020446777 C 309.3834533691406 9.602060317993164 324.7449340820312 14.34962272644043 339.4241333007812 20.53118515014648 C 353.8370056152344 26.60062217712402 367.7383728027344 34.11293411254883 380.7420043945312 42.85956192016602 C 393.6223754882812 51.52318572998047 405.7344970703125 61.47287368774414 416.741943359375 72.43212127685547 C 427.7493286132812 83.39125061035156 437.7426452636719 95.45011901855469 446.4442749023438 108.2737503051758 C 455.2289428710938 121.2198715209961 462.7740783691406 135.0596923828125 468.869873046875 149.4087524414062 C 475.0782470703125 164.0226898193359 479.846435546875 179.3158721923828 483.0419616699219 194.8634948730469 C 486.3209533691406 210.8172454833984 487.9835205078125 227.2379302978516 487.9835205078125 243.6693725585938 C 487.9835205078125 260.1007995605469 486.3209533691406 276.521484375 483.0419616699219 292.4752502441406 C 479.846435546875 308.0228576660156 475.0782470703125 323.3160705566406 468.869873046875 337.9299926757812 C 462.7740783691406 352.279052734375 455.2289428710938 366.1188659667969 446.4442749023438 379.0650024414062 C 437.7426452636719 391.8886108398438 427.7493286132812 403.947509765625 416.741943359375 414.9066162109375 C 405.7344970703125 425.8658752441406 393.6223754882812 435.8155517578125 380.7420043945312 444.4791870117188 C 367.7383728027344 453.2257995605469 353.8370056152344 460.7381286621094 339.4241333007812 466.8075561523438 C 324.7449340820312 472.9891357421875 309.3834533691406 477.7366943359375 293.7663269042969 480.9184265136719 C 277.7410583496094 484.1833190917969 261.246826171875 485.8387451171875 244.7417602539062 485.8387451171875 Z" stroke="none"/>
        <path d="M 244.7417602539062 3 C 228.3370666503906 3 211.9435729980469 4.645233154296875 196.0166320800781 7.89013671875 C 180.4961853027344 11.0521240234375 165.2297668457031 15.77032470703125 150.6415100097656 21.91363525390625 C 136.3176879882812 27.94549560546875 122.5021362304688 35.4114990234375 109.5787048339844 44.10418701171875 C 96.77743530273438 52.71463012695312 84.73974609375 62.60311889648438 73.79989624023438 73.49505615234375 C 62.86019897460938 84.38681030273438 52.92843627929688 96.37136840820312 44.280517578125 109.1159973144531 C 35.55026245117188 121.9818115234375 28.05206298828125 135.7355651855469 21.99420166015625 149.9952392578125 C 15.82470703125 164.5177612304688 11.08639526367188 179.7151794433594 7.910888671875 195.1654357910156 C 4.652252197265625 211.0201110839844 3 227.3391723632812 3 243.6693725585938 C 3 259.9995727539062 4.652252197265625 276.318603515625 7.910888671875 292.1733093261719 C 11.08639526367188 307.6235656738281 15.82470703125 322.8209838867188 21.99420166015625 337.343505859375 C 28.05206298828125 351.6031799316406 35.55026245117188 365.35693359375 44.280517578125 378.2227478027344 C 52.92843627929688 390.9673767089844 62.86019897460938 402.9519348144531 73.79989624023438 413.8436889648438 C 84.73974609375 424.7356262207031 96.77743530273438 434.6241149902344 109.5787048339844 443.2345581054688 C 122.5021362304688 451.92724609375 136.3176879882812 459.3932495117188 150.6415100097656 465.4251098632812 C 165.2297668457031 471.5684204101562 180.4961853027344 476.28662109375 196.0166320800781 479.4486083984375 C 211.9435729980469 482.6935119628906 228.3370666503906 484.3387451171875 244.7417602539062 484.3387451171875 C 261.1464538574219 484.3387451171875 277.5399475097656 482.6935119628906 293.4668884277344 479.4486083984375 C 308.9873046875 476.28662109375 324.2537536621094 471.5684204101562 338.8420104980469 465.4251098632812 C 353.1658325195312 459.3932495117188 366.9813842773438 451.92724609375 379.9048156738281 443.2345581054688 C 392.7060546875 434.6241149902344 404.7437744140625 424.7356262207031 415.6836242675781 413.8436889648438 C 426.6233215332031 402.9519348144531 436.5550842285156 390.9673767089844 445.2030029296875 378.2227478027344 C 453.9332580566406 365.35693359375 461.4314575195312 351.6031799316406 467.4893188476562 337.343505859375 C 473.6588134765625 322.8209838867188 478.3971252441406 307.6235656738281 481.5726318359375 292.1733093261719 C 484.8312683105469 276.318603515625 486.4835205078125 259.9995727539062 486.4835205078125 243.6693725585938 C 486.4835205078125 227.3391723632812 484.8312683105469 211.0201110839844 481.5726318359375 195.1654357910156 C 478.3971252441406 179.7151794433594 473.6588134765625 164.5177612304688 467.4893188476562 149.9952392578125 C 461.4314575195312 135.7355651855469 453.9332580566406 121.9818115234375 445.2030029296875 109.1159973144531 C 436.5550842285156 96.37136840820312 426.6233215332031 84.38681030273438 415.6836242675781 73.49505615234375 C 404.7437744140625 62.60311889648438 392.7060546875 52.71463012695312 379.9048156738281 44.10418701171875 C 366.9813842773438 35.4114990234375 353.1658325195312 27.94549560546875 338.8420104980469 21.91363525390625 C 324.2537536621094 15.77032470703125 308.9873046875 11.0521240234375 293.4668884277344 7.89013671875 C 277.5399475097656 4.645233154296875 261.1464538574219 3 244.7417602539062 3 M 244.7417602539062 0 C 379.9088745117188 0 489.4835205078125 109.094482421875 489.4835205078125 243.6693725585938 C 489.4835205078125 378.2442626953125 379.9088745117188 487.3387451171875 244.7417602539062 487.3387451171875 C 109.5746459960938 487.3387451171875 0 378.2442626953125 0 243.6693725585938 C 0 109.094482421875 109.5746459960938 0 244.7417602539062 0 Z" stroke="none" fill="#607b94"/>
      </g>
    </g>
    <g id="Path_42-4" data-name="Path 42" transform="translate(9 6)" fill="#678098">
      <path d="M 244.7417602539062 485.8387451171875 C 228.2366943359375 485.8387451171875 211.7424468994141 484.1833190917969 195.7171936035156 480.9184265136719 C 180.1000671386719 477.7366943359375 164.7385711669922 472.9891357421875 150.0593872070312 466.8075561523438 C 135.6465148925781 460.7381286621094 121.7451324462891 453.2257995605469 108.7415084838867 444.4791870117188 C 95.86113739013672 435.8155517578125 83.74900817871094 425.8658752441406 72.74156951904297 414.9066162109375 C 61.73419952392578 403.947509765625 51.74088668823242 391.8886108398438 43.03926086425781 379.0650024414062 C 34.25457382202148 366.1188659667969 26.70944786071777 352.279052734375 20.6136360168457 337.9299926757812 C 14.40526008605957 323.3160705566406 9.637072563171387 308.0228576660156 6.441572666168213 292.4752502441406 C 3.162572860717773 276.521484375 1.500010251998901 260.1007995605469 1.500010251998901 243.6693725585938 C 1.500010251998901 227.2379302978516 3.162572860717773 210.8172454833984 6.441572666168213 194.8634948730469 C 9.637072563171387 179.3158721923828 14.40526008605957 164.0226898193359 20.6136360168457 149.4087524414062 C 26.70944786071777 135.0596923828125 34.25457382202148 121.2198715209961 43.03926086425781 108.2737503051758 C 51.74088668823242 95.45011901855469 61.73419952392578 83.39125061035156 72.74156951904297 72.43212127685547 C 83.74900817871094 61.47287368774414 95.86113739013672 51.52318572998047 108.7415084838867 42.85956192016602 C 121.7451324462891 34.11293411254883 135.6465148925781 26.60062217712402 150.0593872070312 20.53118515014648 C 164.7385711669922 14.34962272644043 180.1000671386719 9.602060317993164 195.7171936035156 6.420310020446777 C 211.7424468994141 3.155435085296631 228.2366943359375 1.499997615814209 244.7417602539062 1.499997615814209 C 261.246826171875 1.499997615814209 277.7410583496094 3.155435085296631 293.7663269042969 6.420310020446777 C 309.3834533691406 9.602060317993164 324.7449340820312 14.34962272644043 339.4241333007812 20.53118515014648 C 353.8370056152344 26.60062217712402 367.7383728027344 34.11293411254883 380.7420043945312 42.85956192016602 C 393.6223754882812 51.52318572998047 405.7344970703125 61.47287368774414 416.741943359375 72.43212127685547 C 427.7493286132812 83.39125061035156 437.7426452636719 95.45011901855469 446.4442749023438 108.2737503051758 C 455.2289428710938 121.2198715209961 462.7740783691406 135.0596923828125 468.869873046875 149.4087524414062 C 475.0782470703125 164.0226898193359 479.846435546875 179.3158721923828 483.0419616699219 194.8634948730469 C 486.3209533691406 210.8172454833984 487.9835205078125 227.2379302978516 487.9835205078125 243.6693725585938 C 487.9835205078125 260.1007995605469 486.3209533691406 276.521484375 483.0419616699219 292.4752502441406 C 479.846435546875 308.0228576660156 475.0782470703125 323.3160705566406 468.869873046875 337.9299926757812 C 462.7740783691406 352.279052734375 455.2289428710938 366.1188659667969 446.4442749023438 379.0650024414062 C 437.7426452636719 391.8886108398438 427.7493286132812 403.947509765625 416.741943359375 414.9066162109375 C 405.7344970703125 425.8658752441406 393.6223754882812 435.8155517578125 380.7420043945312 444.4791870117188 C 367.7383728027344 453.2257995605469 353.8370056152344 460.7381286621094 339.4241333007812 466.8075561523438 C 324.7449340820312 472.9891357421875 309.3834533691406 477.7366943359375 293.7663269042969 480.9184265136719 C 277.7410583496094 484.1833190917969 261.246826171875 485.8387451171875 244.7417602539062 485.8387451171875 Z" stroke="none"/>
      <path d="M 244.7417602539062 3 C 228.3370666503906 3 211.9435729980469 4.645233154296875 196.0166320800781 7.89013671875 C 180.4961853027344 11.0521240234375 165.2297668457031 15.77032470703125 150.6415100097656 21.91363525390625 C 136.3176879882812 27.94549560546875 122.5021362304688 35.4114990234375 109.5787048339844 44.10418701171875 C 96.77743530273438 52.71463012695312 84.73974609375 62.60311889648438 73.79989624023438 73.49505615234375 C 62.86019897460938 84.38681030273438 52.92843627929688 96.37136840820312 44.280517578125 109.1159973144531 C 35.55026245117188 121.9818115234375 28.05206298828125 135.7355651855469 21.99420166015625 149.9952392578125 C 15.82470703125 164.5177612304688 11.08639526367188 179.7151794433594 7.910888671875 195.1654357910156 C 4.652252197265625 211.0201110839844 3 227.3391723632812 3 243.6693725585938 C 3 259.9995727539062 4.652252197265625 276.318603515625 7.910888671875 292.1733093261719 C 11.08639526367188 307.6235656738281 15.82470703125 322.8209838867188 21.99420166015625 337.343505859375 C 28.05206298828125 351.6031799316406 35.55026245117188 365.35693359375 44.280517578125 378.2227478027344 C 52.92843627929688 390.9673767089844 62.86019897460938 402.9519348144531 73.79989624023438 413.8436889648438 C 84.73974609375 424.7356262207031 96.77743530273438 434.6241149902344 109.5787048339844 443.2345581054688 C 122.5021362304688 451.92724609375 136.3176879882812 459.3932495117188 150.6415100097656 465.4251098632812 C 165.2297668457031 471.5684204101562 180.4961853027344 476.28662109375 196.0166320800781 479.4486083984375 C 211.9435729980469 482.6935119628906 228.3370666503906 484.3387451171875 244.7417602539062 484.3387451171875 C 261.1464538574219 484.3387451171875 277.5399475097656 482.6935119628906 293.4668884277344 479.4486083984375 C 308.9873046875 476.28662109375 324.2537536621094 471.5684204101562 338.8420104980469 465.4251098632812 C 353.1658325195312 459.3932495117188 366.9813842773438 451.92724609375 379.9048156738281 443.2345581054688 C 392.7060546875 434.6241149902344 404.7437744140625 424.7356262207031 415.6836242675781 413.8436889648438 C 426.6233215332031 402.9519348144531 436.5550842285156 390.9673767089844 445.2030029296875 378.2227478027344 C 453.9332580566406 365.35693359375 461.4314575195312 351.6031799316406 467.4893188476562 337.343505859375 C 473.6588134765625 322.8209838867188 478.3971252441406 307.6235656738281 481.5726318359375 292.1733093261719 C 484.8312683105469 276.318603515625 486.4835205078125 259.9995727539062 486.4835205078125 243.6693725585938 C 486.4835205078125 227.3391723632812 484.8312683105469 211.0201110839844 481.5726318359375 195.1654357910156 C 478.3971252441406 179.7151794433594 473.6588134765625 164.5177612304688 467.4893188476562 149.9952392578125 C 461.4314575195312 135.7355651855469 453.9332580566406 121.9818115234375 445.2030029296875 109.1159973144531 C 436.5550842285156 96.37136840820312 426.6233215332031 84.38681030273438 415.6836242675781 73.49505615234375 C 404.7437744140625 62.60311889648438 392.7060546875 52.71463012695312 379.9048156738281 44.10418701171875 C 366.9813842773438 35.4114990234375 353.1658325195312 27.94549560546875 338.8420104980469 21.91363525390625 C 324.2537536621094 15.77032470703125 308.9873046875 11.0521240234375 293.4668884277344 7.89013671875 C 277.5399475097656 4.645233154296875 261.1464538574219 3 244.7417602539062 3 M 244.7417602539062 0 C 379.9088745117188 0 489.4835205078125 109.094482421875 489.4835205078125 243.6693725585938 C 489.4835205078125 378.2442626953125 379.9088745117188 487.3387451171875 244.7417602539062 487.3387451171875 C 109.5746459960938 487.3387451171875 0 378.2442626953125 0 243.6693725585938 C 0 109.094482421875 109.5746459960938 0 244.7417602539062 0 Z" stroke="none"/>
    </g>
    <g transform="matrix(1, 0, 0, 1, 0, 0)" filter="url(#Path_42-2)">
      <g id="Path_42-5" data-name="Path 42" transform="translate(9 6)" fill="#fff">
        <path d="M 244.7417602539062 485.8387451171875 C 228.2366943359375 485.8387451171875 211.7424468994141 484.1833190917969 195.7171936035156 480.9184265136719 C 180.1000671386719 477.7366943359375 164.7385711669922 472.9891357421875 150.0593872070312 466.8075561523438 C 135.6465148925781 460.7381286621094 121.7451324462891 453.2257995605469 108.7415084838867 444.4791870117188 C 95.86113739013672 435.8155517578125 83.74900817871094 425.8658752441406 72.74156951904297 414.9066162109375 C 61.73419952392578 403.947509765625 51.74088668823242 391.8886108398438 43.03926086425781 379.0650024414062 C 34.25457382202148 366.1188659667969 26.70944786071777 352.279052734375 20.6136360168457 337.9299926757812 C 14.40526008605957 323.3160705566406 9.637072563171387 308.0228576660156 6.441572666168213 292.4752502441406 C 3.162572860717773 276.521484375 1.500010251998901 260.1007995605469 1.500010251998901 243.6693725585938 C 1.500010251998901 227.2379302978516 3.162572860717773 210.8172454833984 6.441572666168213 194.8634948730469 C 9.637072563171387 179.3158721923828 14.40526008605957 164.0226898193359 20.6136360168457 149.4087524414062 C 26.70944786071777 135.0596923828125 34.25457382202148 121.2198715209961 43.03926086425781 108.2737503051758 C 51.74088668823242 95.45011901855469 61.73419952392578 83.39125061035156 72.74156951904297 72.43212127685547 C 83.74900817871094 61.47287368774414 95.86113739013672 51.52318572998047 108.7415084838867 42.85956192016602 C 121.7451324462891 34.11293411254883 135.6465148925781 26.60062217712402 150.0593872070312 20.53118515014648 C 164.7385711669922 14.34962272644043 180.1000671386719 9.602060317993164 195.7171936035156 6.420310020446777 C 211.7424468994141 3.155435085296631 228.2366943359375 1.499997615814209 244.7417602539062 1.499997615814209 C 261.246826171875 1.499997615814209 277.7410583496094 3.155435085296631 293.7663269042969 6.420310020446777 C 309.3834533691406 9.602060317993164 324.7449340820312 14.34962272644043 339.4241333007812 20.53118515014648 C 353.8370056152344 26.60062217712402 367.7383728027344 34.11293411254883 380.7420043945312 42.85956192016602 C 393.6223754882812 51.52318572998047 405.7344970703125 61.47287368774414 416.741943359375 72.43212127685547 C 427.7493286132812 83.39125061035156 437.7426452636719 95.45011901855469 446.4442749023438 108.2737503051758 C 455.2289428710938 121.2198715209961 462.7740783691406 135.0596923828125 468.869873046875 149.4087524414062 C 475.0782470703125 164.0226898193359 479.846435546875 179.3158721923828 483.0419616699219 194.8634948730469 C 486.3209533691406 210.8172454833984 487.9835205078125 227.2379302978516 487.9835205078125 243.6693725585938 C 487.9835205078125 260.1007995605469 486.3209533691406 276.521484375 483.0419616699219 292.4752502441406 C 479.846435546875 308.0228576660156 475.0782470703125 323.3160705566406 468.869873046875 337.9299926757812 C 462.7740783691406 352.279052734375 455.2289428710938 366.1188659667969 446.4442749023438 379.0650024414062 C 437.7426452636719 391.8886108398438 427.7493286132812 403.947509765625 416.741943359375 414.9066162109375 C 405.7344970703125 425.8658752441406 393.6223754882812 435.8155517578125 380.7420043945312 444.4791870117188 C 367.7383728027344 453.2257995605469 353.8370056152344 460.7381286621094 339.4241333007812 466.8075561523438 C 324.7449340820312 472.9891357421875 309.3834533691406 477.7366943359375 293.7663269042969 480.9184265136719 C 277.7410583496094 484.1833190917969 261.246826171875 485.8387451171875 244.7417602539062 485.8387451171875 Z" stroke="none"/>
        <path d="M 244.7417602539062 3 C 228.3370666503906 3 211.9435729980469 4.645233154296875 196.0166320800781 7.89013671875 C 180.4961853027344 11.0521240234375 165.2297668457031 15.77032470703125 150.6415100097656 21.91363525390625 C 136.3176879882812 27.94549560546875 122.5021362304688 35.4114990234375 109.5787048339844 44.10418701171875 C 96.77743530273438 52.71463012695312 84.73974609375 62.60311889648438 73.79989624023438 73.49505615234375 C 62.86019897460938 84.38681030273438 52.92843627929688 96.37136840820312 44.280517578125 109.1159973144531 C 35.55026245117188 121.9818115234375 28.05206298828125 135.7355651855469 21.99420166015625 149.9952392578125 C 15.82470703125 164.5177612304688 11.08639526367188 179.7151794433594 7.910888671875 195.1654357910156 C 4.652252197265625 211.0201110839844 3 227.3391723632812 3 243.6693725585938 C 3 259.9995727539062 4.652252197265625 276.318603515625 7.910888671875 292.1733093261719 C 11.08639526367188 307.6235656738281 15.82470703125 322.8209838867188 21.99420166015625 337.343505859375 C 28.05206298828125 351.6031799316406 35.55026245117188 365.35693359375 44.280517578125 378.2227478027344 C 52.92843627929688 390.9673767089844 62.86019897460938 402.9519348144531 73.79989624023438 413.8436889648438 C 84.73974609375 424.7356262207031 96.77743530273438 434.6241149902344 109.5787048339844 443.2345581054688 C 122.5021362304688 451.92724609375 136.3176879882812 459.3932495117188 150.6415100097656 465.4251098632812 C 165.2297668457031 471.5684204101562 180.4961853027344 476.28662109375 196.0166320800781 479.4486083984375 C 211.9435729980469 482.6935119628906 228.3370666503906 484.3387451171875 244.7417602539062 484.3387451171875 C 261.1464538574219 484.3387451171875 277.5399475097656 482.6935119628906 293.4668884277344 479.4486083984375 C 308.9873046875 476.28662109375 324.2537536621094 471.5684204101562 338.8420104980469 465.4251098632812 C 353.1658325195312 459.3932495117188 366.9813842773438 451.92724609375 379.9048156738281 443.2345581054688 C 392.7060546875 434.6241149902344 404.7437744140625 424.7356262207031 415.6836242675781 413.8436889648438 C 426.6233215332031 402.9519348144531 436.5550842285156 390.9673767089844 445.2030029296875 378.2227478027344 C 453.9332580566406 365.35693359375 461.4314575195312 351.6031799316406 467.4893188476562 337.343505859375 C 473.6588134765625 322.8209838867188 478.3971252441406 307.6235656738281 481.5726318359375 292.1733093261719 C 484.8312683105469 276.318603515625 486.4835205078125 259.9995727539062 486.4835205078125 243.6693725585938 C 486.4835205078125 227.3391723632812 484.8312683105469 211.0201110839844 481.5726318359375 195.1654357910156 C 478.3971252441406 179.7151794433594 473.6588134765625 164.5177612304688 467.4893188476562 149.9952392578125 C 461.4314575195312 135.7355651855469 453.9332580566406 121.9818115234375 445.2030029296875 109.1159973144531 C 436.5550842285156 96.37136840820312 426.6233215332031 84.38681030273438 415.6836242675781 73.49505615234375 C 404.7437744140625 62.60311889648438 392.7060546875 52.71463012695312 379.9048156738281 44.10418701171875 C 366.9813842773438 35.4114990234375 353.1658325195312 27.94549560546875 338.8420104980469 21.91363525390625 C 324.2537536621094 15.77032470703125 308.9873046875 11.0521240234375 293.4668884277344 7.89013671875 C 277.5399475097656 4.645233154296875 261.1464538574219 3 244.7417602539062 3 M 244.7417602539062 0 C 379.9088745117188 0 489.4835205078125 109.094482421875 489.4835205078125 243.6693725585938 C 489.4835205078125 378.2442626953125 379.9088745117188 487.3387451171875 244.7417602539062 487.3387451171875 C 109.5746459960938 487.3387451171875 0 378.2442626953125 0 243.6693725585938 C 0 109.094482421875 109.5746459960938 0 244.7417602539062 0 Z" stroke="none"/>
      </g>
    </g>
    <g id="Path_42-6" data-name="Path 42" transform="translate(9 6)" fill="none">
      <path d="M 244.7417602539062 485.8387451171875 C 228.2366943359375 485.8387451171875 211.7424468994141 484.1833190917969 195.7171936035156 480.9184265136719 C 180.1000671386719 477.7366943359375 164.7385711669922 472.9891357421875 150.0593872070312 466.8075561523438 C 135.6465148925781 460.7381286621094 121.7451324462891 453.2257995605469 108.7415084838867 444.4791870117188 C 95.86113739013672 435.8155517578125 83.74900817871094 425.8658752441406 72.74156951904297 414.9066162109375 C 61.73419952392578 403.947509765625 51.74088668823242 391.8886108398438 43.03926086425781 379.0650024414062 C 34.25457382202148 366.1188659667969 26.70944786071777 352.279052734375 20.6136360168457 337.9299926757812 C 14.40526008605957 323.3160705566406 9.637072563171387 308.0228576660156 6.441572666168213 292.4752502441406 C 3.162572860717773 276.521484375 1.500010251998901 260.1007995605469 1.500010251998901 243.6693725585938 C 1.500010251998901 227.2379302978516 3.162572860717773 210.8172454833984 6.441572666168213 194.8634948730469 C 9.637072563171387 179.3158721923828 14.40526008605957 164.0226898193359 20.6136360168457 149.4087524414062 C 26.70944786071777 135.0596923828125 34.25457382202148 121.2198715209961 43.03926086425781 108.2737503051758 C 51.74088668823242 95.45011901855469 61.73419952392578 83.39125061035156 72.74156951904297 72.43212127685547 C 83.74900817871094 61.47287368774414 95.86113739013672 51.52318572998047 108.7415084838867 42.85956192016602 C 121.7451324462891 34.11293411254883 135.6465148925781 26.60062217712402 150.0593872070312 20.53118515014648 C 164.7385711669922 14.34962272644043 180.1000671386719 9.602060317993164 195.7171936035156 6.420310020446777 C 211.7424468994141 3.155435085296631 228.2366943359375 1.499997615814209 244.7417602539062 1.499997615814209 C 261.246826171875 1.499997615814209 277.7410583496094 3.155435085296631 293.7663269042969 6.420310020446777 C 309.3834533691406 9.602060317993164 324.7449340820312 14.34962272644043 339.4241333007812 20.53118515014648 C 353.8370056152344 26.60062217712402 367.7383728027344 34.11293411254883 380.7420043945312 42.85956192016602 C 393.6223754882812 51.52318572998047 405.7344970703125 61.47287368774414 416.741943359375 72.43212127685547 C 427.7493286132812 83.39125061035156 437.7426452636719 95.45011901855469 446.4442749023438 108.2737503051758 C 455.2289428710938 121.2198715209961 462.7740783691406 135.0596923828125 468.869873046875 149.4087524414062 C 475.0782470703125 164.0226898193359 479.846435546875 179.3158721923828 483.0419616699219 194.8634948730469 C 486.3209533691406 210.8172454833984 487.9835205078125 227.2379302978516 487.9835205078125 243.6693725585938 C 487.9835205078125 260.1007995605469 486.3209533691406 276.521484375 483.0419616699219 292.4752502441406 C 479.846435546875 308.0228576660156 475.0782470703125 323.3160705566406 468.869873046875 337.9299926757812 C 462.7740783691406 352.279052734375 455.2289428710938 366.1188659667969 446.4442749023438 379.0650024414062 C 437.7426452636719 391.8886108398438 427.7493286132812 403.947509765625 416.741943359375 414.9066162109375 C 405.7344970703125 425.8658752441406 393.6223754882812 435.8155517578125 380.7420043945312 444.4791870117188 C 367.7383728027344 453.2257995605469 353.8370056152344 460.7381286621094 339.4241333007812 466.8075561523438 C 324.7449340820312 472.9891357421875 309.3834533691406 477.7366943359375 293.7663269042969 480.9184265136719 C 277.7410583496094 484.1833190917969 261.246826171875 485.8387451171875 244.7417602539062 485.8387451171875 Z" stroke="none"/>
      <path d="M 244.7417602539062 3 C 228.3370666503906 3 211.9435729980469 4.645233154296875 196.0166320800781 7.89013671875 C 180.4961853027344 11.0521240234375 165.2297668457031 15.77032470703125 150.6415100097656 21.91363525390625 C 136.3176879882812 27.94549560546875 122.5021362304688 35.4114990234375 109.5787048339844 44.10418701171875 C 96.77743530273438 52.71463012695312 84.73974609375 62.60311889648438 73.79989624023438 73.49505615234375 C 62.86019897460938 84.38681030273438 52.92843627929688 96.37136840820312 44.280517578125 109.1159973144531 C 35.55026245117188 121.9818115234375 28.05206298828125 135.7355651855469 21.99420166015625 149.9952392578125 C 15.82470703125 164.5177612304688 11.08639526367188 179.7151794433594 7.910888671875 195.1654357910156 C 4.652252197265625 211.0201110839844 3 227.3391723632812 3 243.6693725585938 C 3 259.9995727539062 4.652252197265625 276.318603515625 7.910888671875 292.1733093261719 C 11.08639526367188 307.6235656738281 15.82470703125 322.8209838867188 21.99420166015625 337.343505859375 C 28.05206298828125 351.6031799316406 35.55026245117188 365.35693359375 44.280517578125 378.2227478027344 C 52.92843627929688 390.9673767089844 62.86019897460938 402.9519348144531 73.79989624023438 413.8436889648438 C 84.73974609375 424.7356262207031 96.77743530273438 434.6241149902344 109.5787048339844 443.2345581054688 C 122.5021362304688 451.92724609375 136.3176879882812 459.3932495117188 150.6415100097656 465.4251098632812 C 165.2297668457031 471.5684204101562 180.4961853027344 476.28662109375 196.0166320800781 479.4486083984375 C 211.9435729980469 482.6935119628906 228.3370666503906 484.3387451171875 244.7417602539062 484.3387451171875 C 261.1464538574219 484.3387451171875 277.5399475097656 482.6935119628906 293.4668884277344 479.4486083984375 C 308.9873046875 476.28662109375 324.2537536621094 471.5684204101562 338.8420104980469 465.4251098632812 C 353.1658325195312 459.3932495117188 366.9813842773438 451.92724609375 379.9048156738281 443.2345581054688 C 392.7060546875 434.6241149902344 404.7437744140625 424.7356262207031 415.6836242675781 413.8436889648438 C 426.6233215332031 402.9519348144531 436.5550842285156 390.9673767089844 445.2030029296875 378.2227478027344 C 453.9332580566406 365.35693359375 461.4314575195312 351.6031799316406 467.4893188476562 337.343505859375 C 473.6588134765625 322.8209838867188 478.3971252441406 307.6235656738281 481.5726318359375 292.1733093261719 C 484.8312683105469 276.318603515625 486.4835205078125 259.9995727539062 486.4835205078125 243.6693725585938 C 486.4835205078125 227.3391723632812 484.8312683105469 211.0201110839844 481.5726318359375 195.1654357910156 C 478.3971252441406 179.7151794433594 473.6588134765625 164.5177612304688 467.4893188476562 149.9952392578125 C 461.4314575195312 135.7355651855469 453.9332580566406 121.9818115234375 445.2030029296875 109.1159973144531 C 436.5550842285156 96.37136840820312 426.6233215332031 84.38681030273438 415.6836242675781 73.49505615234375 C 404.7437744140625 62.60311889648438 392.7060546875 52.71463012695312 379.9048156738281 44.10418701171875 C 366.9813842773438 35.4114990234375 353.1658325195312 27.94549560546875 338.8420104980469 21.91363525390625 C 324.2537536621094 15.77032470703125 308.9873046875 11.0521240234375 293.4668884277344 7.89013671875 C 277.5399475097656 4.645233154296875 261.1464538574219 3 244.7417602539062 3 M 244.7417602539062 0 C 379.9088745117188 0 489.4835205078125 109.094482421875 489.4835205078125 243.6693725585938 C 489.4835205078125 378.2442626953125 379.9088745117188 487.3387451171875 244.7417602539062 487.3387451171875 C 109.5746459960938 487.3387451171875 0 378.2442626953125 0 243.6693725585938 C 0 109.094482421875 109.5746459960938 0 244.7417602539062 0 Z" stroke="none" fill="#607b94"/>
    </g>
  </g>
</svg>
